<svg xmlns="http://www.w3.org/2000/svg" viewBox="0 0 1600 1100" role="img" aria-labelledby="title desc">
  <title id="title">Atelier interior concept artwork</title>
  <desc id="desc">Interior scene with tall windows, timber finishes, soft furniture forms, and warm daylight.</desc>
  <defs>
    <linearGradient id="wall" x1="0" y1="0" x2="0" y2="1">
      <stop offset="0%" stop-color="#eee6db"/>
      <stop offset="100%" stop-color="#ccb498"/>
    </linearGradient>
    <linearGradient id="window" x1="0" y1="0" x2="0" y2="1">
      <stop offset="0%" stop-color="#dcebe4"/>
      <stop offset="100%" stop-color="#8aa99e"/>
    </linearGradient>
    <linearGradient id="floor" x1="0" y1="0" x2="1" y2="0">
      <stop offset="0%" stop-color="#7d5d4b"/>
      <stop offset="100%" stop-color="#4b382f"/>
    </linearGradient>
  </defs>
  <rect width="1600" height="1100" fill="url(#wall)"/>
  <rect x="0" y="760" width="1600" height="340" fill="url(#floor)"/>
  <rect x="142" y="118" width="382" height="550" fill="url(#window)"/>
  <rect x="608" y="118" width="382" height="550" fill="url(#window)"/>
  <rect x="1076" y="118" width="382" height="550" fill="url(#window)"/>
  <rect x="118" y="88" width="430" height="620" fill="none" stroke="#7e654f" stroke-width="26"/>
  <rect x="584" y="88" width="430" height="620" fill="none" stroke="#7e654f" stroke-width="26"/>
  <rect x="1052" y="88" width="430" height="620" fill="none" stroke="#7e654f" stroke-width="26"/>
  <rect x="235" y="744" width="516" height="134" rx="67" fill="#d9bf9e"/>
  <rect x="270" y="694" width="210" height="86" rx="40" fill="#b98162"/>
  <rect x="1180" y="748" width="198" height="116" rx="58" fill="#c29272"/>
  <rect x="1052" y="708" width="86" height="214" rx="43" fill="#7f8f80"/>
  <rect x="760" y="704" width="220" height="50" rx="25" fill="#cfb493"/>
  <rect x="800" y="754" width="138" height="92" rx="12" fill="#7c5c49"/>
  <circle cx="868" cy="797" r="17" fill="#f1eadf"/>
  <path d="M948 420C1030 378 1098 348 1164 312C1154 440 1198 560 1288 668H980C934 604 912 526 948 420Z" fill="#f2eadf" opacity="0.62"/>
  <path d="M235 284C318 250 392 228 458 220C416 330 402 446 440 572H262C218 500 202 396 235 284Z" fill="#f7efe4" opacity="0.7"/>
  <circle cx="1328" cy="234" r="80" fill="#fff3dd" opacity="0.55"/>
</svg>
